<svg width="24" height="22" viewBox="0 0 24 22" fill="none" xmlns="http://www.w3.org/2000/svg">
<path d="M22.0961 2.07239C20.8537 0.736015 19.149 0 17.2956 0C15.9102 0 14.6415 0.434382 13.5245 1.29098C12.9609 1.72336 12.4503 2.25236 12 2.86979C11.5499 2.25254 11.0391 1.72336 10.4753 1.29098C9.35852 0.434382 8.08978 0 6.70441 0C4.85101 0 3.14612 0.736015 1.90375 2.07239C0.676208 3.39315 0 5.19751 0 7.15331C0 9.16632 0.756409 11.009 2.38037 12.9525C3.83313 14.6909 5.92108 16.4557 8.33899 18.4992C9.16461 19.1971 10.1005 19.9881 11.0722 20.8307C11.3289 21.0537 11.6583 21.1765 12 21.1765C12.3415 21.1765 12.6711 21.0537 12.9274 20.8311C13.8992 19.9883 14.8356 19.1969 15.6616 18.4986C18.0791 16.4555 20.1671 14.6909 21.6198 12.9523C23.2438 11.009 24 9.16632 24 7.15313C24 5.19751 23.3238 3.39315 22.0961 2.07239Z" fill="#EB1C23"/>
</svg>
